<svg xmlns="http://www.w3.org/2000/svg" xmlns:xlink="http://www.w3.org/1999/xlink" xmlns:lucid="lucid" width="504.16" height="2640"><g transform="translate(-554.5833465126427 -219.99999999999994)" lucid:page-tab-id="0_0"><path d="M500 0h1000v3000H500z" fill="#fff"/><path d="M762.67 240c17.67 0 32 17.9 32 40s-14.33 40-32 40h-96c-17.68 0-32-17.9-32-40s14.32-40 32-40z" stroke="#3a414a" fill="#fff"/><use xlink:href="#a" transform="matrix(1,0,0,1,639.6666666666667,244.99999999999994) translate(49.1358024691358 39.65277777777778)"/><path d="M714.67 321v62.62" stroke="#3a414a" fill="none"/><path d="M715.17 321h-1v-.5h1z" stroke="#3a414a" stroke-width=".05" fill="#3a414a"/><path d="M714.67 398.38l-4.64-14.26h9.27z" stroke="#3a414a" fill="#3a414a"/><path d="M709.87 399.6a8 8 0 0 1 9.6 0l70.4 52.8a4.5 4.5 0 0 1 0 7.2l-70.4 52.8a8 8 0 0 1-9.6 0l-70.4-52.8a4.5 4.5 0 0 1 0-7.2z" stroke="#3a414a" fill="#fff"/><use xlink:href="#b" transform="matrix(1,0,0,1,639.6666666666667,401) translate(29.04820987654321 59.02777777777778)"/><use xlink:href="#c" transform="matrix(1,0,0,1,639.6666666666667,401) translate(89.48030864197531 59.02777777777778)"/><use xlink:href="#d" transform="matrix(1,0,0,1,639.6666666666667,401) translate(108.61611111111111 59.02777777777778)"/><path d="M715.17 583.12h-1v-15.45h1zm0-36.8h-1V515h1z" stroke="#3a414a" stroke-width=".05" fill="#3a414a"/><path d="M714.67 514.5l.5-.03v.54h-1v-.53z" fill="#3a414a"/><path d="M714.67 514.48l.52-.04v.6h-1.06v-.6zm-.48.5h.94v-.5l-.47.05-.48-.03z" stroke="#3a414a" stroke-width=".05" fill="#3a414a"/><path d="M714.67 597.88l-4.64-14.26h9.27z" fill="#3a414a"/><path d="M714.67 599.5l-5.33-16.38H720zm-3.95-15.38l3.95 12.14 3.94-12.14z" stroke="#3a414a" stroke-width=".05" fill="#3a414a"/><use xlink:href="#e" transform="matrix(1,0,0,1,698.3703703703704,546.3338575626) translate(0 14.222222222222223)"/><path d="M663.84 605.3a10 10 0 0 1 8.83-5.3h106c8.83 0 16 26.86 16 60s-7.17 60-16 60h-106a10 10 0 0 1-8.83-5.3l-26.35-49.4a11.25 11.25 0 0 1 0-10.6z" stroke="#3a414a" fill="#fff"/><use xlink:href="#f" transform="matrix(1,0,0,1,639.6666666666667,605) translate(30.295123456790126 31.52777777777778)"/><use xlink:href="#g" transform="matrix(1,0,0,1,639.6666666666667,605) translate(100.91240740740741 31.52777777777778)"/><use xlink:href="#h" transform="matrix(1,0,0,1,639.6666666666667,605) translate(30.387716049382718 58.19444444444445)"/><use xlink:href="#i" transform="matrix(1,0,0,1,639.6666666666667,605) translate(90.8198148148148 58.19444444444445)"/><use xlink:href="#j" transform="matrix(1,0,0,1,639.6666666666667,605) translate(55.15932098765432 84.86111111111111)"/><path d="M715.08 721v45.03a.22.22 0 0 1-.22.22.22.22 0 0 0-.22.22v29.15" stroke="#3a414a" fill="none"/><path d="M715.58 721h-1v-.5h1z" stroke="#3a414a" stroke-width=".05" fill="#3a414a"/><path d="M714.64 810.38L710 796.12h9.27z" stroke="#3a414a" fill="#3a414a"/><path d="M634.64 825.92a6.8 6.8 0 0 1 5.95-6.74l148.08-18.44a5.3 5.3 0 0 1 5.96 5.26v108a6 6 0 0 1-6 6h-148a6 6 0 0 1-6-6z" stroke="#3a414a" fill="#fff"/><use xlink:href="#k" transform="matrix(1,0,0,1,639.6388932819921,825) translate(47.870370370370374 48.71527777777778)"/><path d="M714.64 921v64.1" stroke="#3a414a" fill="none"/><path d="M715.14 921h-1v-.5h1z" stroke="#3a414a" stroke-width=".05" fill="#3a414a"/><path d="M714.64 999.88L710 985.6h9.27z" stroke="#3a414a" fill="#3a414a"/><path d="M709.84 1003.6a8 8 0 0 1 9.6 0l70.4 52.8a4.5 4.5 0 0 1 0 7.2l-70.4 52.8a8 8 0 0 1-9.6 0l-70.4-52.8a4.5 4.5 0 0 1 0-7.2z" stroke="#3a414a" fill="#fff"/><use xlink:href="#b" transform="matrix(1,0,0,1,639.6388932819953,1005) translate(29.04820987654321 59.02777777777778)"/><use xlink:href="#c" transform="matrix(1,0,0,1,639.6388932819953,1005) translate(89.48030864197531 59.02777777777778)"/><use xlink:href="#d" transform="matrix(1,0,0,1,639.6388932819953,1005) translate(108.61611111111111 59.02777777777778)"/><path d="M900.5 1123.12h-1v-52.45h1zm-107.86-62.62v-1h76.88v1z" stroke="#3a414a" stroke-width=".05" fill="#3a414a"/><path d="M792.65 1060.5h-.55l.04-.5-.04-.5h.55z" fill="#3a414a"/><path d="M792.68 1060.53h-.6l.04-.53-.05-.53h.6zm-.56-1l.05.47-.05.47h.5v-.94z" stroke="#3a414a" stroke-width=".05" fill="#3a414a"/><path d="M900 1137.88l-4.63-14.26h9.26z" fill="#3a414a"/><path d="M900 1139.5l-5.32-16.38h10.64zm-3.95-15.38l3.95 12.14 3.95-12.14z" stroke="#3a414a" stroke-width=".05" fill="#3a414a"/><use xlink:href="#e" transform="matrix(1,0,0,1,869.5242238342047,1049.3333333333333) translate(0 14.222222222222223)"/><path d="M849.18 1145.3a10 10 0 0 1 8.82-5.3h106c8.84 0 16 26.86 16 60s-7.16 60-16 60H858a10 10 0 0 1-8.82-5.3l-26.36-49.4a11.25 11.25 0 0 1 0-10.6z" stroke="#3a414a" fill="#fff"/><use xlink:href="#l" transform="matrix(1,0,0,1,825,1145) translate(20.358703703703693 27.616666666666667)"/><use xlink:href="#m" transform="matrix(1,0,0,1,825,1145) translate(58.203148148148145 27.616666666666667)"/><use xlink:href="#n" transform="matrix(1,0,0,1,825,1145) translate(105.34018518518519 27.616666666666667)"/><use xlink:href="#o" transform="matrix(1,0,0,1,825,1145) translate(8.334629629629612 48.41666666666667)"/><use xlink:href="#p" transform="matrix(1,0,0,1,825,1145) translate(37.17537037037036 48.41666666666667)"/><use xlink:href="#q" transform="matrix(1,0,0,1,825,1145) translate(100.63462962962964 48.41666666666667)"/><use xlink:href="#r" transform="matrix(1,0,0,1,825,1145) translate(11.62722222222221 69.21666666666668)"/><use xlink:href="#s" transform="matrix(1,0,0,1,825,1145) translate(103.06055555555554 69.21666666666668)"/><use xlink:href="#t" transform="matrix(1,0,0,1,825,1145) translate(35.2124074074074 90.01666666666668)"/><path d="M900.4 1261v93a6 6 0 0 1-6 6H771.53" stroke="#3a414a" fill="none"/><path d="M900.9 1261h-1v-.5h1z" stroke="#3a414a" stroke-width=".05" fill="#3a414a"/><path d="M756.76 1360l14.26-4.63v9.27z" stroke="#3a414a" fill="#3a414a"/><path d="M754.64 1360c0 22.1-17.9 40-40 40s-40-17.9-40-40 17.9-40 40-40 40 17.9 40 40z" stroke="#3a414a" fill="#fff"/><path d="M597.64 1353.98l.07.88.2.84.34.8.45.73.55.66.65.55.74.45.8.33.84.2.88.07h54.6v1H603.1l-1-.08-1-.24-.94-.4-.86-.52-.78-.66-.66-.78-.54-.87-.4-.94-.23-.98-.06-1v-114.85h1zm39-293.48h-33.48l-.88.07-.84.2-.8.33-.74.45-.65.56-.56.67-.46.73-.33.8-.2.84-.06.88v151.8h-1V1066l.08-1 .23-1 .4-.93.53-.87.66-.78.78-.66.86-.53.95-.38 1-.24 1-.08h33.5z" stroke="#3a414a" stroke-width=".05" fill="#3a414a"/><path d="M637.14 1060l.04.5h-.56v-1h.56z" fill="#3a414a"/><path d="M637.16 1060l.05.53h-.6v-1.06h.6zm-.5-.47v.94h.5l-.05-.47.06-.47z" stroke="#3a414a" stroke-width=".05" fill="#3a414a"/><path d="M672.52 1360l-14.26 4.63v-9.27z" fill="#3a414a"/><path d="M674.14 1360l-16.38 5.32v-10.64zm-15.38 3.95l12.14-3.95-12.14-3.95z" stroke="#3a414a" stroke-width=".05" fill="#3a414a"/><use xlink:href="#u" transform="matrix(1,0,0,1,580.3960375622477,1217.834234892913) translate(0 14.222222222222223)"/><path d="M620.78 456.5h-17.6l-.88.07-.83.2-.8.33-.74.45-.65.56-.56.67-.46.73-.33.8-.2.84-.07.88v480.25l-.07 1-.25 1-.4.93-.53.87-.66.78-.77.66-.88.54-.95.4-1 .23-1 .08h-25.15l-.88.07-.84.2-.8.33-.73.45-.66.56-.55.66-.45.73-.33.8-.2.84-.07.87v480.2l.07.9.2.83.33.8.45.73.56.66.67.55.73.45.8.33.84.2.88.07h142.6l.88-.07.84-.2.8-.33.73-.45.66-.56.56-.67.44-.73.33-.8.2-.84.07-.88V1401h1v33.52l-.08 1-.24 1-.4.93-.52.87-.66.78-.78.66-.87.53-.95.38-1 .24-1 .08H566l-1-.08-1-.24-.93-.4-.87-.52-.78-.66-.66-.78-.53-.87-.38-.94-.24-.98-.08-1v-480.3l.08-1 .24-.98.4-.94.52-.87.66-.78.78-.66.87-.54.94-.4.98-.23 1-.08h25.16l.88-.07.84-.2.8-.33.74-.45.65-.56.56-.66.46-.73.33-.8.2-.84.06-.87V461.98l.08-1 .24-1 .4-.93.52-.87.67-.78.77-.66.87-.53.95-.38 1-.24 1-.08h17.63z" stroke="#3a414a" stroke-width=".05" fill="#3a414a"/><path d="M714.63 1400.5l.5-.02v.53h-1v-.53z" fill="#3a414a"/><path d="M714.63 1400.48l.53-.02v.58h-1.05v-.6zm-.47.5h.95v-.47l-.47.03-.47-.03z" stroke="#3a414a" stroke-width=".05" fill="#3a414a"/><path d="M635.55 456l-14.27 4.63v-9.26z" fill="#3a414a"/><path d="M637.16 456l-16.38 5.32v-10.64zm-15.38 3.95l12.15-3.95-12.15-3.95zM1040.5 1474.02l-.08 1-.24 1-.4.93-.52.87-.66.78-.78.66-.87.53-.94.38-.98.24-1 .08H720.7l-.9.07-.83.2-.8.33-.74.45-.65.56-.56.67-.45.73-.33.8-.2.84-.07.88v57.1h-1v-57.14l.08-1 .23-1 .4-.93.53-.87.67-.78.77-.66.88-.53.94-.38 1-.24 1-.08h313.32l.88-.07.84-.2.8-.33.73-.45.66-.56.55-.67.45-.73.33-.8.2-.84.07-.88v-416.8h1zm-5.48-1018.44l1 .24.93.4.87.52.78.66.66.78.53.87.38.94.24.98.08 1v573.85h-1v-573.8l-.07-.9-.2-.83-.33-.8-.45-.73-.56-.66-.67-.55-.73-.45-.8-.33-.84-.2-.88-.07h-241.3v-1H1034z" stroke="#3a414a" stroke-width=".05" fill="#3a414a"/><path d="M792.68 456.5h-.56l.05-.5-.05-.5h.56z" fill="#3a414a"/><path d="M792.7 456.52h-.6l.04-.52-.04-.52h.6zm-.55-1l.04.48-.05.48h.5v-.96z" stroke="#3a414a" stroke-width=".05" fill="#3a414a"/><path d="M714.67 1557.88l-4.64-14.26h9.27z" fill="#3a414a"/><path d="M714.67 1559.5l-5.33-16.38H720zm-3.95-15.38l3.95 12.14 3.94-12.14z" stroke="#3a414a" stroke-width=".05" fill="#3a414a"/><use xlink:href="#u" transform="matrix(1,0,0,1,1023.2592592592592,1035.8344158228367) translate(0 14.222222222222223)"/><path d="M634.67 1566a6 6 0 0 1 6-6h148a6 6 0 0 1 6 6v108a6 6 0 0 1-6 6h-148a6 6 0 0 1-6-6z" stroke="#3a414a" fill="#fff"/><use xlink:href="#v" transform="matrix(1,0,0,1,646.6666666666667,1572) translate(4.2037037037037095 53.77777777777778)"/><use xlink:href="#w" transform="matrix(1,0,0,1,646.6666666666667,1572) translate(51.055555555555564 53.77777777777778)"/><use xlink:href="#x" transform="matrix(1,0,0,1,646.6666666666667,1572) translate(77.53703703703704 53.77777777777778)"/><path d="M714.67 1681v38.96a.04.04 0 0 1-.04.04.04.04 0 0 0-.05.04v23.08" stroke="#3a414a" fill="none"/><path d="M715.17 1681h-1v-.5h1z" stroke="#3a414a" stroke-width=".05" fill="#3a414a"/><path d="M714.58 1757.88l-4.63-14.26h9.27z" stroke="#3a414a" fill="#3a414a"/><path d="M574.58 1766a6 6 0 0 1 6-6h268a6 6 0 0 1 6 6v108a6 6 0 0 1-6 6h-268a6 6 0 0 1-6-6z" stroke="#3a414a" fill="#fff"/><use xlink:href="#y" transform="matrix(1,0,0,1,586.5833465126427,1772) translate(19.172839506172835 53.77777777777778)"/><use xlink:href="#w" transform="matrix(1,0,0,1,586.5833465126427,1772) translate(90.71604938271604 53.77777777777778)"/><use xlink:href="#h" transform="matrix(1,0,0,1,586.5833465126427,1772) translate(117.19753086419752 53.77777777777778)"/><use xlink:href="#z" transform="matrix(1,0,0,1,586.5833465126427,1772) translate(177.62962962962962 53.77777777777778)"/><use xlink:href="#A" transform="matrix(1,0,0,1,586.5833465126427,1772) translate(212.1358024691358 53.77777777777778)"/><path d="M714.58 1881v62.12" stroke="#3a414a" fill="none"/><path d="M715.08 1881h-1v-.5h1z" stroke="#3a414a" stroke-width=".05" fill="#3a414a"/><path d="M714.58 1957.88l-4.63-14.26h9.27z" stroke="#3a414a" fill="#3a414a"/><path d="M574.58 1966a6 6 0 0 1 6-6h268a6 6 0 0 1 6 6v108a6 6 0 0 1-6 6h-268a6 6 0 0 1-6-6z" stroke="#3a414a" fill="#fff"/><g><use xlink:href="#B" transform="matrix(1,0,0,1,586.5833465126427,1972) translate(21.611111111111114 53.77777777777778)"/><use xlink:href="#w" transform="matrix(1,0,0,1,586.5833465126427,1972) translate(75.9320987654321 53.77777777777778)"/><use xlink:href="#h" transform="matrix(1,0,0,1,586.5833465126427,1972) translate(102.41358024691358 53.77777777777778)"/><use xlink:href="#z" transform="matrix(1,0,0,1,586.5833465126427,1972) translate(162.84567901234567 53.77777777777778)"/><use xlink:href="#C" transform="matrix(1,0,0,1,586.5833465126427,1972) translate(197.35185185185185 53.77777777777778)"/></g><path d="M714.58 2081v38.96a.04.04 0 0 0 .04.04.04.04 0 0 1 .05.04v23.08" stroke="#3a414a" fill="none"/><path d="M715.08 2081h-1v-.5h1z" stroke="#3a414a" stroke-width=".05" fill="#3a414a"/><path d="M714.67 2157.88l-4.64-14.26h9.27z" stroke="#3a414a" fill="#3a414a"/><path d="M663.84 2165.3a10 10 0 0 1 8.83-5.3h106c8.83 0 16 26.86 16 60s-7.17 60-16 60h-106a10 10 0 0 1-8.83-5.3l-26.35-49.4a11.25 11.25 0 0 1 0-10.6z" stroke="#3a414a" fill="#fff"/><g><use xlink:href="#D" transform="matrix(1,0,0,1,639.6666666666667,2165) translate(33.48833333333332 37.92916666666667)"/><use xlink:href="#E" transform="matrix(1,0,0,1,639.6666666666667,2165) translate(82.93648148148148 37.92916666666667)"/><use xlink:href="#F" transform="matrix(1,0,0,1,639.6666666666667,2165) translate(116.59203703703704 37.92916666666667)"/><use xlink:href="#G" transform="matrix(1,0,0,1,639.6666666666667,2165) translate(15.127777777777766 58.72916666666667)"/><use xlink:href="#H" transform="matrix(1,0,0,1,639.6666666666667,2165) translate(62.312962962962956 58.72916666666667)"/><use xlink:href="#I" transform="matrix(1,0,0,1,639.6666666666667,2165) translate(73.24259259259259 58.72916666666667)"/><use xlink:href="#J" transform="matrix(1,0,0,1,639.6666666666667,2165) translate(115.61296296296297 58.72916666666667)"/><use xlink:href="#K" transform="matrix(1,0,0,1,639.6666666666667,2165) translate(54.37907407407407 79.52916666666668)"/></g><path d="M715.08 2281v38.78a.22.22 0 0 1-.22.22.22.22 0 0 0-.22.22v22.9" stroke="#3a414a" fill="none"/><path d="M715.58 2281h-1v-.5h1z" stroke="#3a414a" stroke-width=".05" fill="#3a414a"/><path d="M714.64 2357.88l-4.64-14.26h9.27z" stroke="#3a414a" fill="#3a414a"/><path d="M663.82 2365.3a10 10 0 0 1 8.82-5.3h106c8.84 0 16 26.86 16 60s-7.16 60-16 60h-106a10 10 0 0 1-8.82-5.3l-26.36-49.4a11.25 11.25 0 0 1 0-10.6z" stroke="#3a414a" fill="#fff"/><g><use xlink:href="#D" transform="matrix(1,0,0,1,639.6388932819921,2365) translate(33.48833333333332 37.92916666666667)"/><use xlink:href="#E" transform="matrix(1,0,0,1,639.6388932819921,2365) translate(82.93648148148148 37.92916666666667)"/><use xlink:href="#F" transform="matrix(1,0,0,1,639.6388932819921,2365) translate(116.59203703703704 37.92916666666667)"/><use xlink:href="#L" transform="matrix(1,0,0,1,639.6388932819921,2365) translate(1.6944444444444144 58.72916666666667)"/><use xlink:href="#H" transform="matrix(1,0,0,1,639.6388932819921,2365) translate(62.312962962962956 58.72916666666667)"/><use xlink:href="#M" transform="matrix(1,0,0,1,639.6388932819921,2365) translate(73.24259259259259 58.72916666666667)"/><use xlink:href="#J" transform="matrix(1,0,0,1,639.6388932819921,2365) translate(129.0462962962963 58.72916666666667)"/><use xlink:href="#K" transform="matrix(1,0,0,1,639.6388932819921,2365) translate(54.37907407407407 79.52916666666668)"/></g><path d="M715.05 2481v38.78a.22.22 0 0 1-.22.22.22.22 0 0 0-.22.22v22.9" stroke="#3a414a" fill="none"/><path d="M715.55 2481h-1v-.5h1z" stroke="#3a414a" stroke-width=".05" fill="#3a414a"/><path d="M714.6 2557.88l-4.62-14.26h9.27z" stroke="#3a414a" fill="#3a414a"/><path d="M663.8 2565.3a10 10 0 0 1 8.8-5.3h106c8.85 0 16 26.86 16 60s-7.15 60-16 60h-106a10 10 0 0 1-8.8-5.3l-26.37-49.4a11.25 11.25 0 0 1 0-10.6z" stroke="#3a414a" fill="#fff"/><g><use xlink:href="#D" transform="matrix(1,0,0,1,639.6111198973174,2565) translate(10.308703703703694 48.24166666666667)"/><use xlink:href="#E" transform="matrix(1,0,0,1,639.6111198973174,2565) translate(59.75685185185185 48.24166666666667)"/><use xlink:href="#N" transform="matrix(1,0,0,1,639.6111198973174,2565) translate(93.41240740740741 48.24166666666667)"/><use xlink:href="#O" transform="matrix(1,0,0,1,639.6111198973174,2565) translate(109.15685185185185 48.24166666666667)"/><use xlink:href="#H" transform="matrix(1,0,0,1,639.6111198973174,2565) translate(15.604999999999984 69.04166666666667)"/><use xlink:href="#P" transform="matrix(1,0,0,1,639.6111198973174,2565) translate(26.534629629629613 69.04166666666667)"/><use xlink:href="#Q" transform="matrix(1,0,0,1,639.6111198973174,2565) translate(63.079074074074065 69.04166666666667)"/><use xlink:href="#K" transform="matrix(1,0,0,1,639.6111198973174,2565) translate(87.15314814814815 69.04166666666667)"/></g><path d="M715.02 2681v38.78a.22.22 0 0 1-.22.22.22.22 0 0 0-.22.22v22.9" stroke="#3a414a" fill="none"/><path d="M715.52 2681h-1v-.5h1z" stroke="#3a414a" stroke-width=".05" fill="#3a414a"/><path d="M714.58 2757.88l-4.63-14.26h9.27z" stroke="#3a414a" fill="#3a414a"/><path d="M762.58 2760c17.68 0 32 17.9 32 40s-14.32 40-32 40h-96c-17.67 0-32-17.9-32-40s14.33-40 32-40z" stroke="#3a414a" fill="#fff"/><g><use xlink:href="#R" transform="matrix(1,0,0,1,639.5833465126427,2765) translate(56.574074074074076 39.65277777777778)"/></g><defs><path fill="#3a414a" d="M33 0v-248h34V0H33" id="S"/><path fill="#3a414a" d="M117-194c89-4 53 116 60 194h-32v-121c0-31-8-49-39-48C34-167 62-67 57 0H25l-1-190h30c1 10-1 24 2 32 11-22 29-35 61-36" id="T"/><path fill="#3a414a" d="M24-231v-30h32v30H24zM24 0v-190h32V0H24" id="U"/><path fill="#3a414a" d="M96-169c-40 0-48 33-48 73s9 75 48 75c24 0 41-14 43-38l32 2c-6 37-31 61-74 61-59 0-76-41-82-99-10-93 101-131 147-64 4 7 5 14 7 22l-32 3c-4-21-16-35-41-35" id="V"/><path fill="#3a414a" d="M100-194c62-1 85 37 85 99 1 63-27 99-86 99S16-35 15-95c0-66 28-99 85-99zM99-20c44 1 53-31 53-75 0-43-8-75-51-75s-53 32-53 75 10 74 51 75" id="W"/><g id="a"><use transform="matrix(0.06172839506172839,0,0,0.06172839506172839,0,0)" xlink:href="#S"/><use transform="matrix(0.06172839506172839,0,0,0.06172839506172839,6.172839506172839,0)" xlink:href="#T"/><use transform="matrix(0.06172839506172839,0,0,0.06172839506172839,18.51851851851852,0)" xlink:href="#U"/><use transform="matrix(0.06172839506172839,0,0,0.06172839506172839,23.395061728395063,0)" xlink:href="#V"/><use transform="matrix(0.06172839506172839,0,0,0.06172839506172839,34.50617283950618,0)" xlink:href="#U"/><use transform="matrix(0.06172839506172839,0,0,0.06172839506172839,39.38271604938272,0)" xlink:href="#W"/></g><path fill="#3a414a" d="M85-194c31 0 48 13 60 33l-1-100h32l1 261h-30c-2-10 0-23-3-31C134-8 116 4 85 4 32 4 16-35 15-94c0-66 23-100 70-100zm9 24c-40 0-46 34-46 75 0 40 6 74 45 74 42 0 51-32 51-76 0-42-9-74-50-73" id="X"/><path fill="#3a414a" d="M141-36C126-15 110 5 73 4 37 3 15-17 15-53c-1-64 63-63 125-63 3-35-9-54-41-54-24 1-41 7-42 31l-33-3c5-37 33-52 76-52 45 0 72 20 72 64v82c-1 20 7 32 28 27v20c-31 9-61-2-59-35zM48-53c0 20 12 33 32 33 41-3 63-29 60-74-43 2-92-5-92 41" id="Y"/><path fill="#3a414a" d="M100-194c63 0 86 42 84 106H49c0 40 14 67 53 68 26 1 43-12 49-29l28 8c-11 28-37 45-77 45C44 4 14-33 15-96c1-61 26-98 85-98zm52 81c6-60-76-77-97-28-3 7-6 17-6 28h103" id="Z"/><g id="b"><use transform="matrix(0.06172839506172839,0,0,0.06172839506172839,0,0)" xlink:href="#U"/><use transform="matrix(0.06172839506172839,0,0,0.06172839506172839,4.876543209876543,0)" xlink:href="#X"/><use transform="matrix(0.06172839506172839,0,0,0.06172839506172839,17.22222222222222,0)" xlink:href="#Y"/><use transform="matrix(0.06172839506172839,0,0,0.06172839506172839,29.5679012345679,0)" xlink:href="#X"/><use transform="matrix(0.06172839506172839,0,0,0.06172839506172839,41.913580246913575,0)" xlink:href="#Z"/></g><path fill="#3a414a" d="M18-100v-36l175-74v27L42-118l151 64v27" id="aa"/><use transform="matrix(0.06172839506172839,0,0,0.06172839506172839,0,0)" xlink:href="#aa" id="c"/><path fill="#3a414a" d="M101-251c68 0 85 55 85 127S166 4 100 4C33 4 14-52 14-124c0-73 17-127 87-127zm-1 229c47 0 54-49 54-102s-4-102-53-102c-51 0-55 48-55 102 0 53 5 102 54 102" id="ab"/><use transform="matrix(0.06172839506172839,0,0,0.06172839506172839,0,0)" xlink:href="#ab" id="d"/><path fill="#333" d="M169-182c-1-43-94-46-97-3 18 66 151 10 154 114 3 95-165 93-204 36-6-8-10-19-12-30l50-8c3 46 112 56 116 5-17-69-150-10-154-114-4-87 153-88 188-35 5 8 8 18 10 28" id="ac"/><path fill="#333" d="M25-224v-37h50v37H25zM25 0v-190h50V0H25" id="ad"/><path fill="#333" d="M220-157c-53 9-28 100-34 157h-49v-107c1-27-5-49-29-50C55-147 81-57 75 0H25l-1-190h47c2 12-1 28 3 38 10-53 101-56 108 0 13-22 24-43 59-42 82 1 51 116 57 194h-49v-107c-1-25-5-48-29-50" id="ae"/><g id="e"><use transform="matrix(0.04938271604938272,0,0,0.04938271604938272,0,0)" xlink:href="#ac"/><use transform="matrix(0.04938271604938272,0,0,0.04938271604938272,11.851851851851853,0)" xlink:href="#ad"/><use transform="matrix(0.04938271604938272,0,0,0.04938271604938272,16.790123456790127,0)" xlink:href="#ae"/></g><path fill="#3a414a" d="M109-170H84l-4-78h32zm-65 0H19l-4-78h33" id="af"/><path fill="#3a414a" d="M30-248c118-7 216 8 213 122C240-48 200 0 122 0H30v-248zM63-27c89 8 146-16 146-99s-60-101-146-95v194" id="ag"/><path fill="#3a414a" d="M177-190C167-65 218 103 67 71c-23-6-38-20-44-43l32-5c15 47 100 32 89-28v-30C133-14 115 1 83 1 29 1 15-40 15-95c0-56 16-97 71-98 29-1 48 16 59 35 1-10 0-23 2-32h30zM94-22c36 0 50-32 50-73 0-42-14-75-50-75-39 0-46 34-46 75s6 73 46 73" id="ah"/><path fill="#3a414a" d="M59-47c-2 24 18 29 38 22v24C64 9 27 4 27-40v-127H5v-23h24l9-43h21v43h35v23H59v120" id="ai"/><g id="f"><use transform="matrix(0.06172839506172839,0,0,0.06172839506172839,0,0)" xlink:href="#af"/><use transform="matrix(0.06172839506172839,0,0,0.06172839506172839,7.8395061728395055,0)" xlink:href="#ag"/><use transform="matrix(0.06172839506172839,0,0,0.06172839506172839,23.827160493827158,0)" xlink:href="#U"/><use transform="matrix(0.06172839506172839,0,0,0.06172839506172839,28.703703703703702,0)" xlink:href="#ah"/><use transform="matrix(0.06172839506172839,0,0,0.06172839506172839,41.04938271604938,0)" xlink:href="#U"/><use transform="matrix(0.06172839506172839,0,0,0.06172839506172839,45.925925925925924,0)" xlink:href="#ai"/><use transform="matrix(0.06172839506172839,0,0,0.06172839506172839,52.098765432098766,0)" xlink:href="#Z"/></g><path fill="#3a414a" d="M135-143c-3-34-86-38-87 0 15 53 115 12 119 90S17 21 10-45l28-5c4 36 97 45 98 0-10-56-113-15-118-90-4-57 82-63 122-42 12 7 21 19 24 35" id="aj"/><path fill="#3a414a" d="M84 4C-5 8 30-112 23-190h32v120c0 31 7 50 39 49 72-2 45-101 50-169h31l1 190h-30c-1-10 1-25-2-33-11 22-28 36-60 37" id="ak"/><g id="g"><use transform="matrix(0.06172839506172839,0,0,0.06172839506172839,0,0)" xlink:href="#aj"/><use transform="matrix(0.06172839506172839,0,0,0.06172839506172839,11.11111111111111,0)" xlink:href="#ak"/><use transform="matrix(0.06172839506172839,0,0,0.06172839506172839,23.45679012345679,0)" xlink:href="#Y"/></g><g id="h"><use transform="matrix(0.06172839506172839,0,0,0.06172839506172839,0,0)" xlink:href="#U"/><use transform="matrix(0.06172839506172839,0,0,0.06172839506172839,4.876543209876543,0)" xlink:href="#X"/><use transform="matrix(0.06172839506172839,0,0,0.06172839506172839,17.22222222222222,0)" xlink:href="#Y"/><use transform="matrix(0.06172839506172839,0,0,0.06172839506172839,29.5679012345679,0)" xlink:href="#X"/><use transform="matrix(0.06172839506172839,0,0,0.06172839506172839,41.913580246913575,0)" xlink:href="#Z"/></g><path fill="#3a414a" d="M210-169c-67 3-38 105-44 169h-31v-121c0-29-5-50-35-48C34-165 62-65 56 0H25l-1-190h30c1 10-1 24 2 32 10-44 99-50 107 0 11-21 27-35 58-36 85-2 47 119 55 194h-31v-121c0-29-5-49-35-48" id="al"/><g id="i"><use transform="matrix(0.06172839506172839,0,0,0.06172839506172839,0,0)" xlink:href="#Z"/><use transform="matrix(0.06172839506172839,0,0,0.06172839506172839,12.345679012345679,0)" xlink:href="#al"/></g><path fill="#3a414a" d="M33-154v-36h34v36H33zM33 0v-36h34V0H33" id="am"/><g id="j"><use transform="matrix(0.06172839506172839,0,0,0.06172839506172839,0,0)" xlink:href="#X"/><use transform="matrix(0.06172839506172839,0,0,0.06172839506172839,12.345679012345679,0)" xlink:href="#U"/><use transform="matrix(0.06172839506172839,0,0,0.06172839506172839,17.22222222222222,0)" xlink:href="#Y"/><use transform="matrix(0.06172839506172839,0,0,0.06172839506172839,29.5679012345679,0)" xlink:href="#aj"/><use transform="matrix(0.06172839506172839,0,0,0.06172839506172839,40.67901234567901,0)" xlink:href="#am"/><use transform="matrix(0.06172839506172839,0,0,0.06172839506172839,46.851851851851855,0)" xlink:href="#af"/></g><g id="k"><use transform="matrix(0.06172839506172839,0,0,0.06172839506172839,0,0)" xlink:href="#U"/><use transform="matrix(0.06172839506172839,0,0,0.06172839506172839,4.876543209876543,0)" xlink:href="#X"/><use transform="matrix(0.06172839506172839,0,0,0.06172839506172839,17.22222222222222,0)" xlink:href="#Y"/><use transform="matrix(0.06172839506172839,0,0,0.06172839506172839,29.5679012345679,0)" xlink:href="#X"/><use transform="matrix(0.06172839506172839,0,0,0.06172839506172839,41.913580246913575,0)" xlink:href="#Z"/></g><path d="M109-170H84l-4-78h32zm-65 0H19l-4-78h33" id="an"/><path d="M30-248c87 1 191-15 191 75 0 78-77 80-158 76V0H30v-248zm33 125c57 0 124 11 124-50 0-59-68-47-124-48v98" id="ao"/><path d="M100-194c62-1 85 37 85 99 1 63-27 99-86 99S16-35 15-95c0-66 28-99 85-99zM99-20c44 1 53-31 53-75 0-43-8-75-51-75s-53 32-53 75 10 74 51 75" id="ap"/><path d="M114-163C36-179 61-72 57 0H25l-1-190h30c1 12-1 29 2 39 6-27 23-49 58-41v29" id="aq"/><g id="l"><use transform="matrix(0.048148148148148155,0,0,0.048148148148148155,0,0)" xlink:href="#an"/><use transform="matrix(0.048148148148148155,0,0,0.048148148148148155,6.114814814814816,0)" xlink:href="#ao"/><use transform="matrix(0.048148148148148155,0,0,0.048148148148148155,17.67037037037037,0)" xlink:href="#ap"/><use transform="matrix(0.048148148148148155,0,0,0.048148148148148155,27.300000000000004,0)" xlink:href="#aq"/></g><path d="M101-234c-31-9-42 10-38 44h38v23H63V0H32v-167H5v-23h27c-7-52 17-82 69-68v24" id="ar"/><path d="M141-36C126-15 110 5 73 4 37 3 15-17 15-53c-1-64 63-63 125-63 3-35-9-54-41-54-24 1-41 7-42 31l-33-3c5-37 33-52 76-52 45 0 72 20 72 64v82c-1 20 7 32 28 27v20c-31 9-61-2-59-35zM48-53c0 20 12 33 32 33 41-3 63-29 60-74-43 2-92-5-92 41" id="as"/><path d="M108 0H70L1-190h34L89-25l56-165h34" id="at"/><path d="M68-38c1 34 0 65-14 84H32c9-13 17-26 17-46H33v-38h35" id="au"/><g id="m"><use transform="matrix(0.048148148148148155,0,0,0.048148148148148155,0,0)" xlink:href="#ar"/><use transform="matrix(0.048148148148148155,0,0,0.048148148148148155,4.814814814814816,0)" xlink:href="#as"/><use transform="matrix(0.048148148148148155,0,0,0.048148148148148155,14.444444444444446,0)" xlink:href="#at"/><use transform="matrix(0.048148148148148155,0,0,0.048148148148148155,23.111111111111114,0)" xlink:href="#ap"/><use transform="matrix(0.048148148148148155,0,0,0.048148148148148155,32.74074074074075,0)" xlink:href="#aq"/><use transform="matrix(0.048148148148148155,0,0,0.048148148148148155,37.50740740740741,0)" xlink:href="#au"/></g><path d="M85-194c31 0 48 13 60 33l-1-100h32l1 261h-30c-2-10 0-23-3-31C134-8 116 4 85 4 32 4 16-35 15-94c0-66 23-100 70-100zm9 24c-40 0-46 34-46 75 0 40 6 74 45 74 42 0 51-32 51-76 0-42-9-74-50-73" id="av"/><path d="M24-231v-30h32v30H24zM24 0v-190h32V0H24" id="aw"/><path d="M177-190C167-65 218 103 67 71c-23-6-38-20-44-43l32-5c15 47 100 32 89-28v-30C133-14 115 1 83 1 29 1 15-40 15-95c0-56 16-97 71-98 29-1 48 16 59 35 1-10 0-23 2-32h30zM94-22c36 0 50-32 50-73 0-42-14-75-50-75-39 0-46 34-46 75s6 73 46 73" id="ax"/><path d="M59-47c-2 24 18 29 38 22v24C64 9 27 4 27-40v-127H5v-23h24l9-43h21v43h35v23H59v120" id="ay"/><path d="M100-194c63 0 86 42 84 106H49c0 40 14 67 53 68 26 1 43-12 49-29l28 8c-11 28-37 45-77 45C44 4 14-33 15-96c1-61 26-98 85-98zm52 81c6-60-76-77-97-28-3 7-6 17-6 28h103" id="az"/><g id="n"><use transform="matrix(0.048148148148148155,0,0,0.048148148148148155,0,0)" xlink:href="#av"/><use transform="matrix(0.048148148148148155,0,0,0.048148148148148155,9.629629629629632,0)" xlink:href="#aw"/><use transform="matrix(0.048148148148148155,0,0,0.048148148148148155,13.433333333333335,0)" xlink:href="#ax"/><use transform="matrix(0.048148148148148155,0,0,0.048148148148148155,23.062962962962967,0)" xlink:href="#aw"/><use transform="matrix(0.048148148148148155,0,0,0.048148148148148155,26.86666666666667,0)" xlink:href="#ay"/><use transform="matrix(0.048148148148148155,0,0,0.048148148148148155,31.681481481481487,0)" xlink:href="#az"/></g><path d="M84 4C-5 8 30-112 23-190h32v120c0 31 7 50 39 49 72-2 45-101 50-169h31l1 190h-30c-1-10 1-25-2-33-11 22-28 36-60 37" id="aA"/><path d="M210-169c-67 3-38 105-44 169h-31v-121c0-29-5-50-35-48C34-165 62-65 56 0H25l-1-190h30c1 10-1 24 2 32 10-44 99-50 107 0 11-21 27-35 58-36 85-2 47 119 55 194h-31v-121c0-29-5-49-35-48" id="aB"/><g id="o"><use transform="matrix(0.048148148148148155,0,0,0.048148148148148155,0,0)" xlink:href="#aA"/><use transform="matrix(0.048148148148148155,0,0,0.048148148148148155,9.629629629629632,0)" xlink:href="#aB"/></g><path d="M117-194c89-4 53 116 60 194h-32v-121c0-31-8-49-39-48C34-167 62-67 57 0H25l-1-190h30c1 10-1 24 2 32 11-22 29-35 61-36" id="aC"/><path d="M85 4C-4 8 31-112 24-190h32v120c0 31 7 50 39 49 72-2 45-101 50-169h31l1 190h-30c-1-10 1-25-2-33-11 22-28 36-60 37zM73-211c8-23 27-35 38-54h36v5l-58 49H73" id="aD"/><g id="p"><use transform="matrix(0.048148148148148155,0,0,0.048148148148148155,0,0)" xlink:href="#aC"/><use transform="matrix(0.048148148148148155,0,0,0.048148148148148155,9.629629629629632,0)" xlink:href="#aD"/><use transform="matrix(0.048148148148148155,0,0,0.048148148148148155,19.259259259259263,0)" xlink:href="#aB"/><use transform="matrix(0.048148148148148155,0,0,0.048148148148148155,33.655555555555566,0)" xlink:href="#az"/><use transform="matrix(0.048148148148148155,0,0,0.048148148148148155,43.2851851851852,0)" xlink:href="#aq"/><use transform="matrix(0.048148148148148155,0,0,0.048148148148148155,49.01481481481483,0)" xlink:href="#ap"/></g><g id="q"><use transform="matrix(0.048148148148148155,0,0,0.048148148148148155,0,0)" xlink:href="#aw"/><use transform="matrix(0.048148148148148155,0,0,0.048148148148148155,3.8037037037037043,0)" xlink:href="#aC"/><use transform="matrix(0.048148148148148155,0,0,0.048148148148148155,13.433333333333335,0)" xlink:href="#ay"/><use transform="matrix(0.048148148148148155,0,0,0.048148148148148155,18.24814814814815,0)" xlink:href="#az"/><use transform="matrix(0.048148148148148155,0,0,0.048148148148148155,27.877777777777784,0)" xlink:href="#aw"/><use transform="matrix(0.048148148148148155,0,0,0.048148148148148155,31.681481481481487,0)" xlink:href="#aq"/><use transform="matrix(0.048148148148148155,0,0,0.048148148148148155,37.41111111111111,0)" xlink:href="#ap"/></g><path d="M140-251c81 0 123 46 123 126C263-46 219 4 140 4 59 4 17-45 17-125s42-126 123-126zm0 227c63 0 89-41 89-101s-29-99-89-99c-61 0-89 39-89 99S79-25 140-24" id="aE"/><path d="M185-189c-5-48-123-54-124 2 14 75 158 14 163 119 3 78-121 87-175 55-17-10-28-26-33-46l33-7c5 56 141 63 141-1 0-78-155-14-162-118-5-82 145-84 179-34 5 7 8 16 11 25" id="aF"/><path d="M33 0v-248h34V0H33" id="aG"/><path d="M127-220V0H93v-220H8v-28h204v28h-85" id="aH"/><path d="M137 0h-34L2-248h35l83 218 83-218h36" id="aI"/><path d="M33 0v-38h34V0H33" id="aJ"/><g id="r"><use transform="matrix(0.048148148148148155,0,0,0.048148148148148155,0,0)" xlink:href="#ao"/><use transform="matrix(0.048148148148148155,0,0,0.048148148148148155,11.555555555555557,0)" xlink:href="#aE"/><use transform="matrix(0.048148148148148155,0,0,0.048148148148148155,25.03703703703704,0)" xlink:href="#aF"/><use transform="matrix(0.048148148148148155,0,0,0.048148148148148155,36.592592592592595,0)" xlink:href="#aG"/><use transform="matrix(0.048148148148148155,0,0,0.048148148148148155,41.40740740740741,0)" xlink:href="#aH"/><use transform="matrix(0.048148148148148155,0,0,0.048148148148148155,51.951851851851856,0)" xlink:href="#aG"/><use transform="matrix(0.048148148148148155,0,0,0.048148148148148155,56.76666666666667,0)" xlink:href="#aI"/><use transform="matrix(0.048148148148148155,0,0,0.048148148148148155,68.32222222222222,0)" xlink:href="#aE"/><use transform="matrix(0.048148148148148155,0,0,0.048148148148148155,81.8037037037037,0)" xlink:href="#aJ"/></g><g id="s"><use transform="matrix(0.048148148148148155,0,0,0.048148148148148155,0,0)" xlink:href="#aH"/><use transform="matrix(0.048148148148148155,0,0,0.048148148148148155,8.61851851851852,0)" xlink:href="#az"/><use transform="matrix(0.048148148148148155,0,0,0.048148148148148155,18.248148148148154,0)" xlink:href="#aC"/><use transform="matrix(0.048148148148148155,0,0,0.048148148148148155,27.877777777777787,0)" xlink:href="#ay"/><use transform="matrix(0.048148148148148155,0,0,0.048148148148148155,32.692592592592604,0)" xlink:href="#az"/></g><g id="t"><use transform="matrix(0.048148148148148155,0,0,0.048148148148148155,0,0)" xlink:href="#aC"/><use transform="matrix(0.048148148148148155,0,0,0.048148148148148155,9.629629629629632,0)" xlink:href="#ap"/><use transform="matrix(0.048148148148148155,0,0,0.048148148148148155,19.259259259259263,0)" xlink:href="#at"/><use transform="matrix(0.048148148148148155,0,0,0.048148148148148155,27.92592592592593,0)" xlink:href="#as"/><use transform="matrix(0.048148148148148155,0,0,0.048148148148148155,37.555555555555564,0)" xlink:href="#aB"/><use transform="matrix(0.048148148148148155,0,0,0.048148148148148155,51.951851851851856,0)" xlink:href="#az"/><use transform="matrix(0.048148148148148155,0,0,0.048148148148148155,61.581481481481504,0)" xlink:href="#aC"/><use transform="matrix(0.048148148148148155,0,0,0.048148148148148155,71.21111111111112,0)" xlink:href="#ay"/><use transform="matrix(0.048148148148148155,0,0,0.048148148148148155,76.02592592592593,0)" xlink:href="#az"/><use transform="matrix(0.048148148148148155,0,0,0.048148148148148155,85.65555555555557,0)" xlink:href="#aJ"/><use transform="matrix(0.048148148148148155,0,0,0.048148148148148155,90.47037037037038,0)" xlink:href="#an"/></g><path fill="#333" d="M175 0L67-191c6 58 2 128 3 191H24v-248h59L193-55c-6-58-2-129-3-193h46V0h-61" id="aK"/><path fill="#333" d="M132-34C116-15 102 5 68 4 31 3 10-16 10-54c-1-60 55-63 116-61 1-26-3-47-28-47-18 1-26 9-28 27l-52-2c7-38 36-58 82-57s74 22 75 68l1 82c-1 14 12 18 25 15v27c-30 8-71 5-69-32zm-48 3c29 0 43-24 42-57-32 0-66-3-65 30 0 17 8 27 23 27zm82-228c-2 27-9 52-40 51-27-1-66-46-73 0H29c0-29 9-51 39-51 28 0 66 44 74 0h24" id="aL"/><path fill="#333" d="M110-194c64 0 96 36 96 99 0 64-35 99-97 99-61 0-95-36-95-99 0-62 34-99 96-99zm-1 164c35 0 45-28 45-65 0-40-10-65-43-65-34 0-45 26-45 65 0 36 10 65 43 65" id="aM"/><g id="u"><use transform="matrix(0.04938271604938272,0,0,0.04938271604938272,0,0)" xlink:href="#aK"/><use transform="matrix(0.04938271604938272,0,0,0.04938271604938272,12.790123456790125,0)" xlink:href="#aL"/><use transform="matrix(0.04938271604938272,0,0,0.04938271604938272,22.66666666666667,0)" xlink:href="#aM"/></g><g id="v"><use transform="matrix(0.06172839506172839,0,0,0.06172839506172839,0,0)" xlink:href="#X"/><use transform="matrix(0.06172839506172839,0,0,0.06172839506172839,12.345679012345679,0)" xlink:href="#U"/><use transform="matrix(0.06172839506172839,0,0,0.06172839506172839,17.22222222222222,0)" xlink:href="#Y"/><use transform="matrix(0.06172839506172839,0,0,0.06172839506172839,29.5679012345679,0)" xlink:href="#aj"/></g><path fill="#3a414a" d="M16-82v-28h88v28H16" id="aN"/><g id="w"><use transform="matrix(0.06172839506172839,0,0,0.06172839506172839,0,0)" xlink:href="#aa"/><use transform="matrix(0.06172839506172839,0,0,0.06172839506172839,12.962962962962962,0)" xlink:href="#aN"/></g><g id="x"><use transform="matrix(0.06172839506172839,0,0,0.06172839506172839,0,0)" xlink:href="#U"/><use transform="matrix(0.06172839506172839,0,0,0.06172839506172839,4.876543209876543,0)" xlink:href="#X"/><use transform="matrix(0.06172839506172839,0,0,0.06172839506172839,17.22222222222222,0)" xlink:href="#Y"/><use transform="matrix(0.06172839506172839,0,0,0.06172839506172839,29.5679012345679,0)" xlink:href="#X"/><use transform="matrix(0.06172839506172839,0,0,0.06172839506172839,41.913580246913575,0)" xlink:href="#Z"/></g><g id="y"><use transform="matrix(0.06172839506172839,0,0,0.06172839506172839,0,0)" xlink:href="#al"/><use transform="matrix(0.06172839506172839,0,0,0.06172839506172839,18.456790123456788,0)" xlink:href="#Z"/><use transform="matrix(0.06172839506172839,0,0,0.06172839506172839,30.80246913580247,0)" xlink:href="#aj"/><use transform="matrix(0.06172839506172839,0,0,0.06172839506172839,41.91358024691358,0)" xlink:href="#Z"/><use transform="matrix(0.06172839506172839,0,0,0.06172839506172839,54.25925925925926,0)" xlink:href="#aj"/></g><path fill="#3a414a" d="M108 0H70L1-190h34L89-25l56-165h34" id="aO"/><g id="z"><use transform="matrix(0.06172839506172839,0,0,0.06172839506172839,0,0)" xlink:href="#X"/><use transform="matrix(0.06172839506172839,0,0,0.06172839506172839,12.345679012345679,0)" xlink:href="#U"/><use transform="matrix(0.06172839506172839,0,0,0.06172839506172839,17.22222222222222,0)" xlink:href="#aO"/></g><path fill="#3a414a" d="M126-127c33 6 58 20 58 59 0 88-139 92-164 29-3-8-5-16-6-25l32-3c6 27 21 44 54 44 32 0 52-15 52-46 0-38-36-46-79-43v-28c39 1 72-4 72-42 0-27-17-43-46-43-28 0-47 15-49 41l-32-3c6-42 35-63 81-64 48-1 79 21 79 65 0 36-21 52-52 59" id="aP"/><g id="A"><use transform="matrix(0.06172839506172839,0,0,0.06172839506172839,0,0)" xlink:href="#aP"/><use transform="matrix(0.06172839506172839,0,0,0.06172839506172839,12.345679012345679,0)" xlink:href="#ab"/></g><g id="B"><use transform="matrix(0.06172839506172839,0,0,0.06172839506172839,0,0)" xlink:href="#Y"/><use transform="matrix(0.06172839506172839,0,0,0.06172839506172839,12.345679012345679,0)" xlink:href="#T"/><use transform="matrix(0.06172839506172839,0,0,0.06172839506172839,24.691358024691358,0)" xlink:href="#W"/><use transform="matrix(0.06172839506172839,0,0,0.06172839506172839,37.03703703703704,0)" xlink:href="#aj"/></g><path fill="#3a414a" d="M110-160c48 1 74 30 74 79 0 53-28 85-80 85-65 0-83-55-86-122-5-90 50-162 133-122 14 7 22 21 27 39l-31 6c-5-40-67-38-82-6-9 19-15 44-15 74 11-20 30-34 60-33zm-7 138c34 0 49-23 49-58s-16-56-50-56c-29 0-50 16-49 49 1 36 15 65 50 65" id="aQ"/><path fill="#3a414a" d="M54-142c48-35 137-8 131 61C196 18 31 33 14-55l32-4c7 23 22 37 52 37 35-1 51-22 54-58 4-55-73-65-99-34H22l8-134h141v27H59" id="aR"/><g id="C"><use transform="matrix(0.06172839506172839,0,0,0.06172839506172839,0,0)" xlink:href="#aP"/><use transform="matrix(0.06172839506172839,0,0,0.06172839506172839,12.345679012345679,0)" xlink:href="#aQ"/><use transform="matrix(0.06172839506172839,0,0,0.06172839506172839,24.691358024691358,0)" xlink:href="#aR"/></g><path d="M96-169c-40 0-48 33-48 73s9 75 48 75c24 0 41-14 43-38l32 2c-6 37-31 61-74 61-59 0-76-41-82-99-10-93 101-131 147-64 4 7 5 14 7 22l-32 3c-4-21-16-35-41-35" id="aS"/><path d="M100-194c63 0 86 42 84 106H49c0 40 14 67 53 68 26 1 43-12 49-29l28 8c-11 28-37 45-77 45C44 4 14-33 15-96c1-61 26-98 85-98zm52 81c6-60-76-77-97-28-3 7-6 17-6 28h103zm-32-149c12 18 30 30 39 51-31 2-38-20-57-30-20 10-27 32-59 30 9-22 29-33 41-51h36" id="aT"/><g id="D"><use transform="matrix(0.048148148148148155,0,0,0.048148148148148155,0,0)" xlink:href="#an"/><use transform="matrix(0.048148148148148155,0,0,0.048148148148148155,6.114814814814816,0)" xlink:href="#aI"/><use transform="matrix(0.048148148148148155,0,0,0.048148148148148155,16.70740740740741,0)" xlink:href="#ap"/><use transform="matrix(0.048148148148148155,0,0,0.048148148148148155,26.337037037037042,0)" xlink:href="#aS"/><use transform="matrix(0.048148148148148155,0,0,0.048148148148148155,35.00370370370371,0)" xlink:href="#aT"/></g><g id="E"><use transform="matrix(0.048148148148148155,0,0,0.048148148148148155,0,0)" xlink:href="#ay"/><use transform="matrix(0.048148148148148155,0,0,0.048148148148148155,4.814814814814816,0)" xlink:href="#az"/><use transform="matrix(0.048148148148148155,0,0,0.048148148148148155,14.444444444444446,0)" xlink:href="#aB"/></g><g id="F"><use transform="matrix(0.048148148148148155,0,0,0.048148148148148155,0,0)" xlink:href="#an"/><use transform="matrix(0.048148148148148155,0,0,0.048148148148148155,6.114814814814816,0)" xlink:href="#au"/></g><path d="M135-143c-3-34-86-38-87 0 15 53 115 12 119 90S17 21 10-45l28-5c4 36 97 45 98 0-10-56-113-15-118-90-4-57 82-63 122-42 12 7 21 19 24 35" id="aU"/><g id="G"><use transform="matrix(0.048148148148148155,0,0,0.048148148148148155,0,0)" xlink:href="#as"/><use transform="matrix(0.048148148148148155,0,0,0.048148148148148155,9.629629629629632,0)" xlink:href="#aC"/><use transform="matrix(0.048148148148148155,0,0,0.048148148148148155,19.259259259259263,0)" xlink:href="#ap"/><use transform="matrix(0.048148148148148155,0,0,0.048148148148148155,28.888888888888893,0)" xlink:href="#aU"/><use transform="matrix(0.048148148148148155,0,0,0.048148148148148155,37.55555555555556,0)" xlink:href="#au"/></g><use transform="matrix(0.048148148148148155,0,0,0.048148148148148155,0,0)" xlink:href="#an" id="H"/><g id="I"><use transform="matrix(0.048148148148148155,0,0,0.048148148148148155,0,0)" xlink:href="#as"/><use transform="matrix(0.048148148148148155,0,0,0.048148148148148155,9.629629629629632,0)" xlink:href="#aC"/><use transform="matrix(0.048148148148148155,0,0,0.048148148148148155,19.259259259259263,0)" xlink:href="#ap"/><use transform="matrix(0.048148148148148155,0,0,0.048148148148148155,28.888888888888893,0)" xlink:href="#aU"/></g><g id="J"><use transform="matrix(0.048148148148148155,0,0,0.048148148148148155,0,0)" xlink:href="#av"/><use transform="matrix(0.048148148148148155,0,0,0.048148148148148155,9.629629629629632,0)" xlink:href="#az"/></g><g id="K"><use transform="matrix(0.048148148148148155,0,0,0.048148148148148155,0,0)" xlink:href="#aw"/><use transform="matrix(0.048148148148148155,0,0,0.048148148148148155,3.8037037037037043,0)" xlink:href="#av"/><use transform="matrix(0.048148148148148155,0,0,0.048148148148148155,13.433333333333335,0)" xlink:href="#as"/><use transform="matrix(0.048148148148148155,0,0,0.048148148148148155,23.062962962962967,0)" xlink:href="#av"/><use transform="matrix(0.048148148148148155,0,0,0.048148148148148155,32.6925925925926,0)" xlink:href="#az"/><use transform="matrix(0.048148148148148155,0,0,0.048148148148148155,42.32222222222223,0)" xlink:href="#aJ"/><use transform="matrix(0.048148148148148155,0,0,0.048148148148148155,47.13703703703705,0)" xlink:href="#an"/></g><g id="L"><use transform="matrix(0.048148148148148155,0,0,0.048148148148148155,0,0)" xlink:href="#aB"/><use transform="matrix(0.048148148148148155,0,0,0.048148148148148155,14.396296296296299,0)" xlink:href="#az"/><use transform="matrix(0.048148148148148155,0,0,0.048148148148148155,24.025925925925932,0)" xlink:href="#aU"/><use transform="matrix(0.048148148148148155,0,0,0.048148148148148155,32.692592592592604,0)" xlink:href="#az"/><use transform="matrix(0.048148148148148155,0,0,0.048148148148148155,42.32222222222224,0)" xlink:href="#aU"/><use transform="matrix(0.048148148148148155,0,0,0.048148148148148155,50.98888888888891,0)" xlink:href="#au"/></g><g id="M"><use transform="matrix(0.048148148148148155,0,0,0.048148148148148155,0,0)" xlink:href="#aB"/><use transform="matrix(0.048148148148148155,0,0,0.048148148148148155,14.396296296296299,0)" xlink:href="#az"/><use transform="matrix(0.048148148148148155,0,0,0.048148148148148155,24.025925925925932,0)" xlink:href="#aU"/><use transform="matrix(0.048148148148148155,0,0,0.048148148148148155,32.692592592592604,0)" xlink:href="#az"/><use transform="matrix(0.048148148148148155,0,0,0.048148148148148155,42.32222222222224,0)" xlink:href="#aU"/></g><g id="N"><use transform="matrix(0.048148148148148155,0,0,0.048148148148148155,0,0)" xlink:href="#an"/><use transform="matrix(0.048148148148148155,0,0,0.048148148148148155,6.114814814814816,0)" xlink:href="#au"/></g><g id="O"><use transform="matrix(0.048148148148148155,0,0,0.048148148148148155,0,0)" xlink:href="#av"/><use transform="matrix(0.048148148148148155,0,0,0.048148148148148155,9.629629629629632,0)" xlink:href="#aw"/><use transform="matrix(0.048148148148148155,0,0,0.048148148148148155,13.433333333333335,0)" xlink:href="#as"/><use transform="matrix(0.048148148148148155,0,0,0.048148148148148155,23.062962962962967,0)" xlink:href="#aU"/><use transform="matrix(0.048148148148148155,0,0,0.048148148148148155,31.729629629629635,0)" xlink:href="#au"/></g><g id="P"><use transform="matrix(0.048148148148148155,0,0,0.048148148148148155,0,0)" xlink:href="#av"/><use transform="matrix(0.048148148148148155,0,0,0.048148148148148155,9.629629629629632,0)" xlink:href="#aw"/><use transform="matrix(0.048148148148148155,0,0,0.048148148148148155,13.433333333333335,0)" xlink:href="#as"/><use transform="matrix(0.048148148148148155,0,0,0.048148148148148155,23.062962962962967,0)" xlink:href="#aU"/></g><g id="Q"><use transform="matrix(0.048148148148148155,0,0,0.048148148148148155,0,0)" xlink:href="#av"/><use transform="matrix(0.048148148148148155,0,0,0.048148148148148155,9.629629629629632,0)" xlink:href="#az"/></g><path fill="#3a414a" d="M63-220v92h138v28H63V0H30v-248h175v28H63" id="aV"/><g id="R"><use transform="matrix(0.06172839506172839,0,0,0.06172839506172839,0,0)" xlink:href="#aV"/><use transform="matrix(0.06172839506172839,0,0,0.06172839506172839,13.518518518518517,0)" xlink:href="#U"/><use transform="matrix(0.06172839506172839,0,0,0.06172839506172839,18.39506172839506,0)" xlink:href="#al"/></g></defs></g></svg>